Coordinates
version=1
nRows=39
nColumns=18
inDegrees=yes

Units are S.I. units (second, meters, Newtons, ...)
Angles are in degrees.

endheader
time	pelvis_tilt	pelvis_list	pelvis_rotation	pelvis_tx	pelvis_ty	pelvis_tz	hip_flexion_r	hip_adduction_r	hip_rotation_r	knee_angle_r	ankle_angle_r	hip_flexion_l	hip_adduction_l	hip_rotation_l	knee_angle_l	ankle_angle_l	lumbar_extension
      1.82000000	      0.62331046	      3.36614777	      4.21048173	      0.35993320	      0.88989115	     -0.27220971	     -4.83383202	     -3.81937940	      0.00000000	      2.98811429	      6.11584996	     17.76945713	      2.85453525	      0.00000000	    -63.61111477	      6.25151794	     -5.00000214
      1.83000000	      0.51656673	      3.39714893	      4.47703078	      0.37118033	      0.88987668	     -0.27154103	     -6.06163752	     -3.70824000	      0.00000000	      3.94653728	      6.13041299	     19.42336361	      3.14809572	      0.00000000	    -62.62827758	      7.03597289	     -5.00000214
      1.84000000	      0.41059447	      3.42200433	      4.71428611	      0.38239671	      0.88969749	     -0.27091524	     -7.24324148	     -3.59185900	      0.00000000	      4.82560551	      6.09701286	     20.95661144	      3.45745428	      0.00000000	    -61.27432192	      7.70434355	     -5.00000214
      1.85000000	      0.30993143	      3.42177594	      4.92713407	      0.39358555	      0.88932723	     -0.27026712	     -8.38573947	     -3.43784361	      0.00000000	      5.63452397	      6.15440671	     22.38008086	      3.74709346	      0.00000000	    -59.58610592	      8.14202503	     -5.00000214
      1.86000000	      0.18482013	      3.40081914	      5.07272391	      0.40469905	      0.88877868	     -0.26962698	     -9.44656930	     -3.27327046	      0.00000000	      6.37530291	      6.16343082	     23.69100223	      4.03062428	      0.00000000	    -57.53126788	      8.53920524	     -5.00000214
      1.87000000	      0.07584949	      3.36576670	      5.17216843	      0.41583877	      0.88811996	     -0.26895451	    -10.45436370	     -3.08958923	      0.00000000	      6.99421424	      6.31636195	     24.82919135	      4.29063691	      0.00000000	    -55.09514838	      8.76961843	     -5.00000214
      1.88000000	     -0.02833531	      3.29922651	      5.23261501	      0.42703801	      0.88725854	     -0.26822191	    -11.48388351	     -2.86441057	      0.00000000	      7.67008741	      6.34189195	     25.82469751	      4.49690767	      0.00000000	    -52.34761971	      9.04511473	     -5.00000214
      1.89000000	     -0.14420463	      3.20962564	      5.18465910	      0.43818951	      0.88629255	     -0.26736674	    -12.34384752	     -2.62520587	      0.00000000	      8.07711783	      6.52697237	     26.65731171	      4.64778649	      0.00000000	    -49.20030962	      9.15933460	     -5.00000214
      1.90000000	     -0.25002982	      3.08594826	      5.07724654	      0.44944420	      0.88515592	     -0.26643633	    -13.21869223	     -2.35192227	      0.00000000	      8.50931461	      6.72042003	     27.31773706	      4.72098346	      0.00000000	    -45.73311842	      9.20839307	     -5.00000214
      1.91000000	     -0.32490287	      2.96555384	      4.94662615	      0.46088584	      0.88390171	     -0.26551315	    -14.13753006	     -2.08245645	      0.00000000	      8.94966621	      6.92213514	     27.77630853	      4.75986806	      0.00000000	    -41.95861412	      9.09900602	     -5.00000214
      1.92000000	     -0.39724598	      2.81342800	      4.74841213	      0.47244125	      0.88247432	     -0.26449120	    -15.05541810	     -1.79006411	      0.00000000	      9.41341719	      7.08281599	     28.08987092	      4.71096663	      0.00000000	    -37.94494734	      8.34890114	     -5.00000214
      1.93000000	     -0.43304303	      2.61442059	      4.50117744	      0.48422557	      0.88094176	     -0.26331558	    -15.94822814	     -1.44270851	      0.00000000	      9.72053210	      7.32624847	     28.22532444	      4.54926946	      0.00000000	    -33.76733143	      7.66894606	     -5.00000214
      1.94000000	     -0.47730765	      2.34939657	      4.10205108	      0.49614716	      0.87919538	     -0.26181499	    -16.73902903	     -1.04730214	      0.00000000	      9.88177247	      7.51682292	     28.28055179	      4.22455461	      0.00000000	    -29.61228640	      7.44275933	     -5.00000214
      1.95000000	     -0.49504602	      2.13593218	      3.75217219	      0.50831108	      0.87738354	     -0.26063340	    -17.62223600	     -0.72969540	      0.00000000	     10.10998923	      7.78297451	     28.20921233	      3.96147187	      0.00000000	    -25.42680588	      5.80695013	     -5.00000214
      1.96000000	     -0.46047066	      1.82939523	      3.30445024	      0.52086009	      0.87539612	     -0.25909427	    -18.52230062	     -0.31225024	      0.00000000	     10.23397481	      7.98530049	     28.07066088	      3.51965280	      0.00000000	    -21.62177028	      5.53624490	     -5.00000214
      1.97000000	     -0.43328187	      1.55706191	      2.84798139	      0.53354977	      0.87333634	     -0.25771849	    -19.42656568	      0.03772078	      0.00000000	     10.35703740	      8.22268805	     27.92060450	      3.10799614	      0.00000000	    -18.08462160	      4.12959472	     -5.00000214
      1.98000000	     -0.34499792	      1.23220805	      2.35811362	      0.54663751	      0.87125812	     -0.25623423	    -20.38324233	      0.43308159	      0.00000000	     10.39123444	      8.41468456	     27.70469380	      2.61911085	      0.00000000	    -15.07577880	      3.74097557	     -5.00000214
      1.99000000	     -0.26245399	      0.86131686	      1.83415603	      0.55984232	      0.86912545	     -0.25462185	    -21.28084479	      0.85620430	      0.00000000	     10.31478121	      8.54164177	     27.57593341	      2.06078351	      0.00000000	    -12.74737867	      3.72043751	     -5.00000214
      2.00000000	     -0.16381890	      0.52792465	      1.31036613	      0.57327236	      0.86707821	     -0.25320326	    -22.19810806	      1.20063332	      0.00000000	     10.19111169	      8.67550749	     27.39172741	      1.56190744	      0.00000000	    -10.88833439	      3.64750328	     -5.00000214
      2.01000000	     -0.05594580	      0.16766993	      0.79613253	      0.58684787	      0.86511680	     -0.25176434	    -23.08636677	      1.55435849	      0.00000000	      9.96219759	      8.78431674	     27.24216742	      1.04737373	      0.00000000	     -9.68871484	      3.66175100	     -5.00000214
      2.02000000	      0.05986387	     -0.20988211	      0.30117319	      0.60059240	      0.86327649	     -0.25038473	    -23.94678263	      1.89840134	      0.00000000	      9.62231766	      8.86781517	     27.10792310	      0.53813305	      0.00000000	     -9.09757532	      3.74341648	     -5.00000214
      2.03000000	      0.19495716	     -0.59002603	     -0.18179675	      0.61451936	      0.86160368	     -0.24905410	    -24.77649500	      2.21173378	      0.00000000	      9.14585288	      8.94306741	     26.95075596	      0.04433349	      0.00000000	     -9.03284524	      3.81886641	     -5.00000214
      2.04000000	      0.36675742	     -0.92334790	     -0.60561346	      0.62868484	      0.86011992	     -0.24801571	    -25.63724965	      2.43559574	      0.00000000	      8.60102648	      8.93454101	     26.77965411	     -0.34489446	      0.00000000	     -9.49896377	      3.73987060	     -5.00000214
      2.05000000	      0.51603947	     -1.37688314	     -1.04181504	      0.64286543	      0.85882412	     -0.24659801	    -26.36390615	      2.77697985	      0.00000000	      7.84628535	      8.91607295	     26.62041390	     -0.89211543	      0.00000000	    -10.31062798	      3.52510496	     -5.00000214
      2.06000000	      0.64598048	     -1.77174724	     -1.43195232	      0.65700328	      0.85777078	     -0.24556832	    -26.86726162	      2.99715764	      0.00000000	      6.67731961	      9.02547764	     26.55313055	     -1.32600121	      0.00000000	    -11.53116459	      2.54496328	     -5.00000214
      2.07000000	      0.80820899	     -2.16665483	     -1.79413374	      0.67133237	      0.85700149	     -0.24461014	    -27.35426429	      3.18439036	      0.00000000	      5.41762034	      8.80330349	     26.44274590	     -1.74975867	      0.00000000	    -12.99603881	      1.77397023	     -5.00000214
      2.08000000	      0.98175960	     -2.53173958	     -2.15787823	      0.68571587	      0.85664448	     -0.24376434	    -27.68219351	      3.29286842	      0.00000000	      3.85375536	      8.56886571	     26.23107881	     -2.14665582	      0.00000000	    -14.39137943	      0.01153737	     -5.00000214
      2.09000000	      1.14628917	     -2.89954073	     -2.48670303	      0.70006804	      0.85658322	     -0.24302685	    -27.80677361	      3.38492298	      0.00000000	      1.96404510	      8.07045298	     26.08426008	     -2.54727626	      0.00000000	    -16.04386132	     -0.79562333	     -5.00000214
      2.10000000	      1.30984536	     -3.22439258	     -2.76286144	      0.71434179	      0.85700584	     -0.24250108	    -27.69277588	      3.42830174	      0.00000000	     -0.30308800	      7.40518574	     25.82286148	     -2.88949453	      0.00000000	    -17.45971317	     -2.52461184	     -5.00000214
      2.11000000	      1.46450821	     -3.54182109	     -3.06275728	      0.72854179	      0.85777326	     -0.24201812	    -27.33549788	      3.44126119	      0.00000000	     -2.91027332	      6.54813448	     25.55272659	     -3.25275628	      0.00000000	    -18.98607703	     -2.97485100	     -5.00000214
      2.12000000	      1.59851139	     -3.84136822	     -3.28512148	      0.74252343	      0.85892809	     -0.24168713	    -26.68542299	      3.48178111	      0.00000000	     -5.90912384	      5.42287477	     25.20633994	     -3.59241204	      0.00000000	    -20.33183846	     -3.31445731	     -5.00000214
      2.13000000	      1.70946776	     -4.12436603	     -3.43206141	      0.75631525	      0.86043648	     -0.24149541	    -25.80919205	      3.56030391	      0.00000000	     -9.11286880	      3.65611817	     24.77918115	     -3.91019371	      0.00000000	    -21.49469292	     -3.35717888	     -5.00000214
      2.14000000	      1.79333398	     -4.38822368	     -3.62201317	      0.76979215	      0.86227207	     -0.24129618	    -24.60421824	      3.63821892	      0.00000000	    -12.72855976	      2.21443168	     24.21573400	     -4.23518794	      0.00000000	    -22.41219386	     -3.01583344	     -5.00000214
      2.15000000	      1.83683400	     -4.61582925	     -3.71940873	      0.78297043	      0.86432444	     -0.24130724	    -23.17189620	      3.75983535	      0.00000000	    -16.47332248	      0.46715195	     23.58247834	     -4.49474873	      0.00000000	    -23.11457462	     -2.31241284	     -5.00000214
      2.16000000	      1.87450812	     -4.83436966	     -3.82666123	      0.79591857	      0.86664936	     -0.24131987	    -21.58563823	      3.91181997	      0.00000000	    -20.24560529	     -1.31857690	     22.78622802	     -4.75317412	      0.00000000	    -23.54966520	     -1.36466854	     -5.00000214
      2.17000000	      1.91114612	     -5.04351535	     -3.86453774	      0.80872977	      0.86915278	     -0.24143147	    -19.91972250	      4.12847139	      0.00000000	    -23.88789885	     -3.33969380	     21.88843257	     -4.97821863	      0.00000000	    -23.83474629	      0.22245297	     -5.00000214
      2.18000000	      1.93169436	     -5.17112018	     -4.00272263	      0.82123628	      0.87191068	     -0.24167793	    -18.05590335	      4.24303194	      0.00000000	    -27.63762040	     -4.21632410	     20.71186825	     -5.11029054	      0.00000000	    -23.50394404	      0.90500845	     -5.00000214
      2.19000000	      1.89795382	     -5.30295343	     -4.09846402	      0.83331255	      0.87457793	     -0.24194667	    -16.02075210	      4.43069655	      0.00000000	    -31.33126857	     -4.67059263	     19.65824866	     -5.23751613	      0.00000000	    -23.31003818	      2.09794811	     -5.00000214
      2.20000000	      1.88789003	     -5.35054378	     -4.26170816	      0.84534710	      0.87743020	     -0.24241535	    -13.98546890	      4.50771189	      0.00000000	    -34.80636949	     -4.35262984	     18.31269880	     -5.24403027	      0.00000000	    -22.57604677	      2.93520838	     -5.00000214
